<svg width="301" height="185" viewBox="0 0 301 185" fill="none" xmlns="http://www.w3.org/2000/svg">
<path fill-rule="evenodd" clip-rule="evenodd" d="M12 80C21.882 80 24 82.118 24 92C24 101.882 21.882 104 12 104C2.118 104 1.85161e-07 101.882 1.04907e-06 92C1.91299e-06 82.118 2.118 80 12 80ZM13.2929 87.2929L9.29289 91.2929C8.90237 91.6834 8.90237 92.3166 9.29289 92.7071L13.2929 96.7071C13.6834 97.0976 14.3166 97.0976 14.7071 96.7071C15.0976 96.3166 15.0976 95.6834 14.7071 95.2929L11.4142 92L14.7071 88.7071C15.0976 88.3166 15.0976 87.6834 14.7071 87.2929C14.3166 86.9024 13.6834 86.9024 13.2929 87.2929Z" fill="white"/>
<path fill-rule="evenodd" clip-rule="evenodd" d="M289 104C279.118 104 277 101.882 277 92C277 82.118 279.118 80 289 80C298.882 80 301 82.118 301 92C301 101.882 298.882 104 289 104ZM287.707 96.7071L291.707 92.7071C292.098 92.3166 292.098 91.6834 291.707 91.2929L287.707 87.2929C287.317 86.9024 286.683 86.9024 286.293 87.2929C285.902 87.6834 285.902 88.3166 286.293 88.7071L289.586 92L286.293 95.2929C285.902 95.6834 285.902 96.3166 286.293 96.7071C286.683 97.0976 287.317 97.0976 287.707 96.7071Z" fill="white"/>
<path opacity="0.7" d="M214.986 91.6461C214.816 123.148 189.141 148.825 157.639 148.999C126.137 149.172 100.738 123.775 100.907 92.2727C101.077 60.7708 126.752 35.0933 158.254 34.9202C189.756 34.7472 215.155 60.1442 214.986 91.6461ZM109.463 92.2257C109.319 119.002 130.909 140.59 157.685 140.443C184.462 140.296 206.285 118.47 206.43 91.6931C206.574 64.9165 184.984 43.329 158.208 43.4761C131.431 43.6232 109.608 65.4491 109.463 92.2257Z" fill="white"/>
<path d="M158.722 165.372C158.71 167.472 156.997 169.194 154.9 169.1C139.174 168.4 124.071 162.827 111.706 153.106C98.3472 142.604 88.9628 127.871 85.0644 111.282C81.1661 94.6936 82.9809 77.2145 90.2163 61.6616C97.4518 46.1087 109.687 33.3879 124.949 25.5489C140.212 17.7099 157.614 15.2092 174.35 18.4499C191.087 21.6905 206.183 30.4837 217.208 43.4126C228.232 56.3415 234.542 72.6531 235.121 89.719C235.656 105.516 231.252 121.108 222.572 134.344C221.414 136.108 219.026 136.493 217.333 135.268C215.641 134.043 215.287 131.672 216.434 129.901C224.109 118.058 227.997 104.149 227.52 90.0593C226.999 74.7 221.32 60.0196 211.398 48.3836C201.476 36.7476 187.889 28.8337 172.826 25.9171C157.763 23.0005 142.102 25.2511 128.365 32.3062C114.629 39.3613 103.618 50.8101 97.1058 64.8077C90.5939 78.8053 88.9606 94.5365 92.4691 109.466C95.9776 124.396 104.424 137.656 116.446 147.108C127.475 155.778 140.925 160.782 154.942 161.485C157.038 161.59 158.733 163.272 158.722 165.372Z" fill="#20C1CF"/>
<path d="M157.921 179.703C157.907 182.24 155.837 184.321 153.303 184.208C139.177 183.579 125.399 179.692 113.057 172.827C99.3793 165.22 87.9211 154.209 79.7779 140.847C71.6347 127.486 67.0789 112.221 66.5463 96.5134C66.0137 80.8054 69.5221 65.1797 76.7359 51.1308C83.9497 37.0819 94.6276 25.0798 107.748 16.2725C120.869 7.46525 135.993 2.14741 151.675 0.827664C167.357 -0.492078 183.071 2.23043 197.314 8.73477C210.168 14.6046 221.437 23.3771 230.255 34.3445C231.837 36.3116 231.357 39.1958 229.296 40.6987C227.235 42.2015 224.374 41.7529 222.781 39.7947C214.888 30.0899 204.852 22.3207 193.422 17.1014C180.603 11.2475 166.46 8.79725 152.347 9.98502C138.233 11.1728 124.621 15.9588 112.813 23.8854C101.004 31.812 91.3938 42.6139 84.9014 55.2579C78.409 67.9019 75.2514 81.965 75.7308 96.1022C76.2101 110.239 80.3103 123.977 87.6392 136.003C94.9681 148.028 105.28 157.938 117.59 164.784C128.565 170.889 140.8 174.376 153.353 175.006C155.886 175.133 157.934 177.165 157.921 179.703Z" fill="#535FE6"/>
<path d="M147.6 97.3639C146.806 98.0722 145.786 98.4298 144.538 98.4367C143.29 98.4435 142.273 98.0971 141.488 97.3975C140.702 96.6872 140.313 95.7347 140.319 94.54L140.359 87.0521L142.199 87.042L142.16 94.4179C142.156 95.1006 142.35 95.6435 142.743 96.0466C143.146 96.4497 143.748 96.6491 144.548 96.6447C145.348 96.6403 145.946 96.4344 146.343 96.0269C146.75 95.6193 146.956 95.0742 146.96 94.3916L146.999 87.0157L148.839 87.0056L148.799 94.4934C148.793 95.6881 148.393 96.6449 147.6 97.3639ZM154.622 98.3813C153.545 98.3872 152.629 98.1469 151.874 97.6604C151.13 97.1739 150.611 96.5047 150.317 95.6531L151.906 94.7164C152.347 95.9726 153.272 96.5968 154.68 96.589C155.373 96.5852 155.891 96.4491 156.234 96.1805C156.587 95.9013 156.765 95.543 156.768 95.1056C156.77 94.647 156.585 94.3013 156.213 94.0687C155.841 93.8255 155.181 93.5624 154.234 93.2796C153.701 93.1226 153.27 92.9756 152.94 92.8388C152.61 92.7019 152.259 92.5119 151.887 92.2686C151.526 92.0146 151.256 91.7014 151.076 91.3291C150.897 90.9567 150.809 90.5199 150.811 90.0186C150.817 89.0266 151.173 88.2407 151.88 87.6608C152.587 87.0703 153.437 86.7723 154.429 86.7669C155.325 86.7619 156.108 86.9763 156.777 87.4099C157.447 87.8436 157.961 88.4434 158.319 89.2094L156.763 90.1139C156.299 89.0712 155.518 88.5528 154.419 88.5588C153.886 88.5618 153.458 88.6921 153.137 88.9499C152.816 89.1969 152.654 89.5338 152.652 89.9605C152.649 90.3765 152.808 90.7063 153.126 90.9498C153.456 91.1827 154.046 91.4301 154.898 91.6921C155.324 91.8284 155.633 91.9334 155.824 92.007C156.027 92.0698 156.304 92.175 156.655 92.3224C157.017 92.4697 157.288 92.6176 157.468 92.7659C157.649 92.9142 157.84 93.0998 158.041 93.3227C158.253 93.5456 158.401 93.8007 158.485 94.0883C158.569 94.3758 158.61 94.7009 158.608 95.0635C158.602 96.0769 158.23 96.8842 157.491 97.4856C156.762 98.0762 155.806 98.3748 154.622 98.3813ZM164.559 86.9192C166.095 86.9108 167.366 87.4424 168.374 88.5142C169.392 89.5859 169.897 90.911 169.888 92.4897C169.88 94.0577 169.361 95.3885 168.331 96.4821C167.312 97.565 166.034 98.1106 164.498 98.119L160.098 98.1432L160.159 86.9434L164.559 86.9192ZM164.508 96.3591C165.564 96.3533 166.424 95.9859 167.09 95.2569C167.765 94.5279 168.106 93.6088 168.112 92.4994C168.118 91.3795 167.787 90.464 167.119 89.753C166.462 89.0313 165.605 88.6734 164.549 88.6792L161.989 88.6932L161.948 96.3731L164.508 96.3591Z" fill="white"/>
</svg>
