<svg width="201" height="97" viewBox="0 0 201 97" fill="none" xmlns="http://www.w3.org/2000/svg">
<g filter="url(#filter0_d_3801_9590)">
<path d="M24 39C24 22.4315 37.4315 9 54 9H161C169.837 9 177 16.1634 177 25V42C177 50.8366 169.837 58 161 58H40C31.1634 58 24 50.8366 24 42V39Z" fill="url(#paint0_linear_3801_9590)"/>
<path d="M25 39C25 22.9837 37.9837 10 54 10H161C169.284 10 176 16.7157 176 25V42C176 50.2843 169.284 57 161 57H40C31.7157 57 25 50.2843 25 42V39Z" stroke="url(#paint1_linear_3801_9590)" stroke-width="2"/>
<path d="M64.6294 27.3C66.1654 27.3 67.44 27.8387 68.4534 28.916C69.4774 29.9933 69.9894 31.3213 69.9894 32.9C69.9894 34.468 69.4774 35.796 68.4534 36.884C67.44 37.9613 66.1654 38.5 64.6294 38.5H60.2294V27.3H64.6294ZM64.6294 36.74C65.6854 36.74 66.544 36.3773 67.2054 35.652C67.8774 34.9267 68.2134 34.0093 68.2134 32.9C68.2134 31.78 67.8774 30.8627 67.2054 30.148C66.544 29.4227 65.6854 29.06 64.6294 29.06H62.0694V36.74H64.6294ZM77.8909 30.5H79.6189V38.5H77.8909V37.348C77.2402 38.2547 76.3069 38.708 75.0909 38.708C73.9922 38.708 73.0535 38.3027 72.2749 37.492C71.4962 36.6707 71.1069 35.6733 71.1069 34.5C71.1069 33.316 71.4962 32.3187 72.2749 31.508C73.0535 30.6973 73.9922 30.292 75.0909 30.292C76.3069 30.292 77.2402 30.74 77.8909 31.636V30.5ZM73.5549 36.34C74.0349 36.82 74.6375 37.06 75.3629 37.06C76.0882 37.06 76.6909 36.82 77.1709 36.34C77.6509 35.8493 77.8909 35.236 77.8909 34.5C77.8909 33.764 77.6509 33.156 77.1709 32.676C76.6909 32.1853 76.0882 31.94 75.3629 31.94C74.6375 31.94 74.0349 32.1853 73.5549 32.676C73.0749 33.156 72.8349 33.764 72.8349 34.5C72.8349 35.236 73.0749 35.8493 73.5549 36.34ZM83.1381 32.708C83.1381 32.9747 83.2821 33.188 83.5701 33.348C83.8688 33.4973 84.2261 33.6307 84.6421 33.748C85.0688 33.8547 85.4955 33.9827 85.9221 34.132C86.3488 34.2813 86.7061 34.5373 86.9941 34.9C87.2928 35.252 87.4421 35.7 87.4421 36.244C87.4421 37.012 87.1435 37.6147 86.5461 38.052C85.9595 38.4893 85.2181 38.708 84.3221 38.708C83.5328 38.708 82.8555 38.5427 82.2901 38.212C81.7248 37.8813 81.3141 37.4227 81.0581 36.836L82.5461 35.972C82.8235 36.74 83.4155 37.124 84.3221 37.124C85.2288 37.124 85.6821 36.8253 85.6821 36.228C85.6821 35.972 85.5328 35.764 85.2341 35.604C84.9461 35.444 84.5888 35.3107 84.1621 35.204C83.7461 35.0867 83.3248 34.9533 82.8981 34.804C82.4715 34.6547 82.1088 34.4093 81.8101 34.068C81.5221 33.716 81.3781 33.2733 81.3781 32.74C81.3781 32.004 81.6555 31.412 82.2101 30.964C82.7755 30.516 83.4741 30.292 84.3061 30.292C84.9675 30.292 85.5541 30.4413 86.0661 30.74C86.5888 31.028 86.9888 31.4333 87.2661 31.956L85.8101 32.772C85.5328 32.164 85.0315 31.86 84.3061 31.86C83.9755 31.86 83.6981 31.9347 83.4741 32.084C83.2501 32.2227 83.1381 32.4307 83.1381 32.708ZM93.0754 30.292C93.9927 30.292 94.734 30.5853 95.2994 31.172C95.8647 31.7587 96.1474 32.564 96.1474 33.588V38.5H94.4194V33.764C94.4194 33.1667 94.2594 32.708 93.9394 32.388C93.6194 32.068 93.182 31.908 92.6274 31.908C92.0194 31.908 91.5287 32.1 91.1554 32.484C90.782 32.8573 90.5954 33.4333 90.5954 34.212V38.5H88.8674V27.3H90.5954V31.524C91.118 30.7027 91.9447 30.292 93.0754 30.292ZM102.536 30.292C103.635 30.292 104.573 30.6973 105.352 31.508C106.131 32.3187 106.52 33.316 106.52 34.5C106.52 35.6733 106.131 36.6707 105.352 37.492C104.573 38.3027 103.635 38.708 102.536 38.708C101.32 38.708 100.387 38.2547 99.736 37.348V38.5H98.008V27.3H99.736V31.636C100.387 30.74 101.32 30.292 102.536 30.292ZM100.456 36.34C100.936 36.82 101.539 37.06 102.264 37.06C102.989 37.06 103.592 36.82 104.072 36.34C104.552 35.8493 104.792 35.236 104.792 34.5C104.792 33.764 104.552 33.156 104.072 32.676C103.592 32.1853 102.989 31.94 102.264 31.94C101.539 31.94 100.936 32.1853 100.456 32.676C99.976 33.156 99.736 33.764 99.736 34.5C99.736 35.236 99.976 35.8493 100.456 36.34ZM111.862 38.708C110.689 38.708 109.691 38.3027 108.87 37.492C108.049 36.6813 107.638 35.684 107.638 34.5C107.638 33.316 108.049 32.3187 108.87 31.508C109.691 30.6973 110.689 30.292 111.862 30.292C113.046 30.292 114.043 30.6973 114.854 31.508C115.675 32.3187 116.086 33.316 116.086 34.5C116.086 35.684 115.675 36.6813 114.854 37.492C114.043 38.3027 113.046 38.708 111.862 38.708ZM110.086 36.308C110.566 36.788 111.158 37.028 111.862 37.028C112.566 37.028 113.158 36.788 113.638 36.308C114.118 35.828 114.358 35.2253 114.358 34.5C114.358 33.7747 114.118 33.172 113.638 32.692C113.158 32.212 112.566 31.972 111.862 31.972C111.158 31.972 110.566 32.212 110.086 32.692C109.606 33.172 109.366 33.7747 109.366 34.5C109.366 35.2253 109.606 35.828 110.086 36.308ZM123.985 30.5H125.713V38.5H123.985V37.348C123.334 38.2547 122.401 38.708 121.185 38.708C120.086 38.708 119.147 38.3027 118.369 37.492C117.59 36.6707 117.201 35.6733 117.201 34.5C117.201 33.316 117.59 32.3187 118.369 31.508C119.147 30.6973 120.086 30.292 121.185 30.292C122.401 30.292 123.334 30.74 123.985 31.636V30.5ZM119.649 36.34C120.129 36.82 120.731 37.06 121.457 37.06C122.182 37.06 122.785 36.82 123.265 36.34C123.745 35.8493 123.985 35.236 123.985 34.5C123.985 33.764 123.745 33.156 123.265 32.676C122.785 32.1853 122.182 31.94 121.457 31.94C120.731 31.94 120.129 32.1853 119.649 32.676C119.169 33.156 118.929 33.764 118.929 34.5C118.929 35.236 119.169 35.8493 119.649 36.34ZM129.455 31.844C129.892 30.852 130.713 30.356 131.919 30.356V32.228C131.257 32.1853 130.681 32.3453 130.191 32.708C129.7 33.06 129.455 33.6467 129.455 34.468V38.5H127.727V30.5H129.455V31.844ZM139.157 27.3H140.885V38.5H139.157V37.348C138.506 38.2547 137.573 38.708 136.357 38.708C135.258 38.708 134.319 38.3027 133.541 37.492C132.762 36.6707 132.373 35.6733 132.373 34.5C132.373 33.316 132.762 32.3187 133.541 31.508C134.319 30.6973 135.258 30.292 136.357 30.292C137.573 30.292 138.506 30.74 139.157 31.636V27.3ZM134.821 36.34C135.301 36.82 135.903 37.06 136.629 37.06C137.354 37.06 137.957 36.82 138.437 36.34C138.917 35.8493 139.157 35.236 139.157 34.5C139.157 33.764 138.917 33.156 138.437 32.676C137.957 32.1853 137.354 31.94 136.629 31.94C135.903 31.94 135.301 32.1853 134.821 32.676C134.341 33.156 134.101 33.764 134.101 34.5C134.101 35.236 134.341 35.8493 134.821 36.34Z" fill="white"/>
</g>
<defs>
<filter id="filter0_d_3801_9590" x="0" y="0" width="201" height="97" filterUnits="userSpaceOnUse" color-interpolation-filters="sRGB">
<feFlood flood-opacity="0" result="BackgroundImageFix"/>
<feColorMatrix in="SourceAlpha" type="matrix" values="0 0 0 0 0 0 0 0 0 0 0 0 0 0 0 0 0 0 127 0" result="hardAlpha"/>
<feOffset dy="15"/>
<feGaussianBlur stdDeviation="12"/>
<feColorMatrix type="matrix" values="0 0 0 0 0 0 0 0 0 0 0 0 0 0 0 0 0 0 0.22 0"/>
<feBlend mode="normal" in2="BackgroundImageFix" result="effect1_dropShadow_3801_9590"/>
<feBlend mode="normal" in="SourceGraphic" in2="effect1_dropShadow_3801_9590" result="shape"/>
</filter>
<linearGradient id="paint0_linear_3801_9590" x1="131.935" y1="42.9907" x2="121.008" y2="-4.40308" gradientUnits="userSpaceOnUse">
<stop stop-color="#535FE6" stop-opacity="0.84"/>
<stop offset="1" stop-color="#20C1CF" stop-opacity="0.57"/>
</linearGradient>
<linearGradient id="paint1_linear_3801_9590" x1="131.935" y1="42.9907" x2="121.008" y2="-4.40308" gradientUnits="userSpaceOnUse">
<stop stop-color="#535FE6" stop-opacity="0.84"/>
<stop offset="1" stop-color="#20C1CF" stop-opacity="0.57"/>
</linearGradient>
</defs>
</svg>
