<svg width="20" height="20" viewBox="0 0 20 20" fill="none" xmlns="http://www.w3.org/2000/svg">
<path fill-rule="evenodd" clip-rule="evenodd" d="M0 10C0 18.235 1.765 20 10 20C18.235 20 20 18.235 20 10C20 1.765 18.235 0 10 0C1.765 0 0 1.765 0 10ZM5.83333 10C5.83333 9.53976 6.20643 9.16667 6.66667 9.16667H9.16667V6.66667C9.16667 6.20643 9.53976 5.83333 10 5.83333C10.4602 5.83333 10.8333 6.20643 10.8333 6.66667V9.16667H13.3333C13.7936 9.16667 14.1667 9.53976 14.1667 10C14.1667 10.4602 13.7936 10.8333 13.3333 10.8333H10.8333V13.3333C10.8333 13.7936 10.4602 14.1667 10 14.1667C9.53976 14.1667 9.16667 13.7936 9.16667 13.3333V10.8333H6.66667C6.20643 10.8333 5.83333 10.4602 5.83333 10Z" fill="url(#paint0_linear_1897_6076)"/>
<defs>
<linearGradient id="paint0_linear_1897_6076" x1="14.1091" y1="13.8737" x2="4.44937" y2="0.45484" gradientUnits="userSpaceOnUse">
<stop stop-color="#535FE6" stop-opacity="0.84"/>
<stop offset="1" stop-color="#20C1CF" stop-opacity="0.57"/>
</linearGradient>
</defs>
</svg>
